<svg width="800" height="600" viewBox="0 0 800 600" xmlns="http://www.w3.org/2000/svg" style="background-color: #f0f0f0;">
  <!-- Стены зала -->
  <line x1="200" y1="0" x2="200" y2="600" stroke="black" stroke-width="4" />
  <line x1="0" y1="300" x2="200" y2="300" stroke="black" stroke-width="4" />
  
  <!-- Бильярдные столы (одинаковые размеры и пропорции) -->
  <g>
    <rect x="230" y="50" width="160" height="80" fill="green" stroke="black" stroke-width="3" />
    <text x="305" y="95" font-size="16" fill="black" text-anchor="middle">1</text>
  </g>
  <g>
    <rect x="430" y="50" width="160" height="80" fill="green" stroke="black" stroke-width="3" />
    <text x="505" y="95" font-size="16" fill="black" text-anchor="middle">2</text>
  </g>
  <g>
    <rect x="630" y="50" width="160" height="80" fill="green" stroke="black" stroke-width="3" />
    <text x="705" y="95" font-size="16" fill="black" text-anchor="middle">3</text>
  </g>
  <g>
    <rect x="330" y="200" width="160" height="80" fill="green" stroke="black" stroke-width="3" />
    <text x="405" y="245" font-size="16" fill="black" text-anchor="middle">4</text>
  </g>
  <g>
    <rect x="530" y="200" width="160" height="80" fill="green" stroke="black" stroke-width="3" />
    <text x="605" y="245" font-size="16" fill="black" text-anchor="middle">5</text>
  </g>
  <g>
    <rect x="330" y="350" width="160" height="80" fill="green" stroke="black" stroke-width="3" />
    <text x="405" y="395" font-size="16" fill="black" text-anchor="middle">6</text>
  </g>
  <g>
    <rect x="530" y="350" width="160" height="80" fill="green" stroke="black" stroke-width="3" />
    <text x="605" y="395" font-size="16" fill="black" text-anchor="middle">7</text>
  </g>
  <g>
    <rect x="80" y="400" width="80" height="160" fill="green" stroke="black" stroke-width="3" />
    <text x="120" y="485" font-size="16" fill="black" text-anchor="middle">8</text>
  </g>
  <g>
    <rect x="80" y="100" width="80" height="160" fill="green" stroke="black" stroke-width="3" />
    <text x="120" y="185" font-size="16" fill="black" text-anchor="middle">9</text>
  </g>
</svg>
